<svg width="137" height="161" viewBox="0 0 137 161" fill="none" xmlns="http://www.w3.org/2000/svg">
<g clip-path="url(#clip0_98_1822)">
<g filter="url(#filter0_f_98_1822)">
<path d="M19.1476 71.377C20.6309 50.3627 48.9797 25.8872 64.1429 13.5259C67.3569 11.5481 68.2253 10.837 73.5376 15.5037C79.5706 20.8036 83.6738 30.0901 83.6738 36.2708C83.6738 41.2508 82.4377 49.3738 81.4488 52.835L90.8434 43.9348C95.5407 39.4847 97.0241 40.2264 97.7658 40.2264C98.5074 40.2264 106.666 47.8904 113.588 61.7351C120.511 75.5798 115.813 92.8857 109.138 104.505C106.549 109.012 91.1949 124.898 74.2792 126.509C53.5121 128.486 47.5787 123.295 35.2174 114.642C22.856 105.989 18.0683 86.667 19.1476 71.377Z" fill="#FF8647"/>
</g>
<g filter="url(#filter1_f_98_1822)">
<ellipse cx="68.593" cy="139.117" rx="31.6451" ry="7.41681" fill="#C9C9C9"/>
</g>
<path d="M22 71C23.4833 49.9857 44.5 24 64.1429 13.5259C67.3569 11.5481 68.2253 10.837 73.5376 15.5037C79.5706 20.8036 83.6738 30.0901 83.6738 36.2708C83.6738 41.2508 82.4377 49.3738 81.4488 52.835L90.8434 43.9348C95.5407 39.4847 97.0241 40.2264 97.7658 40.2264C98.5074 40.2264 106.666 47.8904 113.588 61.7351C120.511 75.5798 115.813 92.8857 109.138 104.505C106.549 109.012 91.1949 124.898 74.2792 126.509C53.5121 128.486 48.5 126.509 35.2174 114.642C23.9651 104.589 20.9207 86.29 22 71Z" fill="#FF5700"/>
<path d="M54.2538 124.284H63.154V135.162C63.154 137.619 61.1616 139.612 58.7039 139.612C56.2462 139.612 54.2538 137.619 54.2538 135.162V124.284Z" fill="#FF5700"/>
<path d="M110 98.5C124.333 87.1667 144.8 63.4 112 59" stroke="#FF5700" stroke-width="5" stroke-linecap="round"/>
<path d="M31.596 99.5C17.2627 88.1667 7.2 40.4 40 36" stroke="#FF5700" stroke-width="5" stroke-linecap="round"/>
<path d="M72.0542 124.284H80.9543V135.162C80.9543 137.619 78.962 139.612 76.5043 139.612C74.0465 139.612 72.0542 137.619 72.0542 135.162V124.284Z" fill="#FF5700"/>
<ellipse cx="68.1982" cy="88.791" rx="5.19177" ry="5.43899" fill="#ECE8E8"/>
<rect width="55" height="31" transform="translate(41 52)" fill="#FF5700"/>
<ellipse cx="54.8333" cy="67.5417" rx="6.83333" ry="8.54167" fill="#F5FFF8"/>
<ellipse cx="82.1667" cy="67.5417" rx="6.83333" ry="8.54167" fill="#F5FFF8"/>
<ellipse cx="81.2889" cy="68.4537" rx="3.17262" ry="3.48988" fill="#A9361C"/>
<circle cx="82.5091" cy="65.4519" r="0.97619" fill="white"/>
<circle cx="82.5091" cy="65.4519" r="0.97619" fill="url(#paint0_radial_98_1822)"/>
<ellipse cx="55.9078" cy="68.4537" rx="3.17262" ry="3.48988" fill="#A9361C"/>
<circle cx="57.1281" cy="65.4519" r="0.97619" fill="white"/>
<circle cx="57.1281" cy="65.4519" r="0.97619" fill="url(#paint1_radial_98_1822)"/>
<g filter="url(#filter2_f_98_1822)">
<ellipse cx="93.0684" cy="85.2217" rx="5.68622" ry="4.45009" fill="#FF8B00"/>
</g>
<path d="M50.645 99.2711C48.7785 99.6444 45.5909 107.386 43.9913 111.858C43.8325 112.302 44.017 112.796 44.429 113.025C62.8988 123.288 87.5256 115.062 90.943 112.621C93.5279 110.775 87.6958 103.901 83.825 100.046C83.4061 99.6286 82.7186 99.6849 82.3619 100.156L76.85 107.44C76.4693 107.943 75.7212 107.966 75.3106 107.487L67.9933 98.9497C67.5875 98.4763 66.8501 98.492 66.4649 98.9823L59.9271 107.303C59.502 107.844 58.6677 107.799 58.2918 107.222C56.0977 103.859 52.3991 98.9203 50.645 99.2711Z" fill="#FF8B00"/>
<g filter="url(#filter3_f_98_1822)">
<ellipse cx="42.6341" cy="85.2217" rx="5.68622" ry="4.45009" fill="#FF8B00"/>
</g>
<rect width="25" height="15" transform="translate(56 81)" fill="#FF5700"/>
<ellipse cx="68" cy="89.2381" rx="5" ry="5.2381" fill="#ECE8E8"/>
</g>
<defs>
<filter id="filter0_f_98_1822" x="-1" y="-8" width="138" height="154.928" filterUnits="userSpaceOnUse" color-interpolation-filters="sRGB">
<feFlood flood-opacity="0" result="BackgroundImageFix"/>
<feBlend mode="normal" in="SourceGraphic" in2="BackgroundImageFix" result="shape"/>
<feGaussianBlur stdDeviation="10" result="effect1_foregroundBlur_98_1822"/>
</filter>
<filter id="filter1_f_98_1822" x="18.9479" y="113.7" width="99.2901" height="50.8336" filterUnits="userSpaceOnUse" color-interpolation-filters="sRGB">
<feFlood flood-opacity="0" result="BackgroundImageFix"/>
<feBlend mode="normal" in="SourceGraphic" in2="BackgroundImageFix" result="shape"/>
<feGaussianBlur stdDeviation="9" result="effect1_foregroundBlur_98_1822"/>
</filter>
<filter id="filter2_f_98_1822" x="85.4044" y="78.7938" width="15.3281" height="12.8558" filterUnits="userSpaceOnUse" color-interpolation-filters="sRGB">
<feFlood flood-opacity="0" result="BackgroundImageFix"/>
<feBlend mode="normal" in="SourceGraphic" in2="BackgroundImageFix" result="shape"/>
<feGaussianBlur stdDeviation="0.988908" result="effect1_foregroundBlur_98_1822"/>
</filter>
<filter id="filter3_f_98_1822" x="34.9701" y="78.7938" width="15.3281" height="12.8558" filterUnits="userSpaceOnUse" color-interpolation-filters="sRGB">
<feFlood flood-opacity="0" result="BackgroundImageFix"/>
<feBlend mode="normal" in="SourceGraphic" in2="BackgroundImageFix" result="shape"/>
<feGaussianBlur stdDeviation="0.988908" result="effect1_foregroundBlur_98_1822"/>
</filter>
<radialGradient id="paint0_radial_98_1822" cx="0" cy="0" r="1" gradientUnits="userSpaceOnUse" gradientTransform="translate(82.5091 65.4519) rotate(90) scale(0.97619)">
<stop stop-color="white"/>
<stop offset="1" stop-color="white" stop-opacity="0"/>
</radialGradient>
<radialGradient id="paint1_radial_98_1822" cx="0" cy="0" r="1" gradientUnits="userSpaceOnUse" gradientTransform="translate(57.1281 65.4519) rotate(90) scale(0.97619)">
<stop stop-color="white"/>
<stop offset="1" stop-color="white" stop-opacity="0"/>
</radialGradient>
<clipPath id="clip0_98_1822">
<rect width="137" height="161" fill="white"/>
</clipPath>
</defs>
</svg>
