<svg width="111" height="116" viewBox="0 0 111 116" fill="none" xmlns="http://www.w3.org/2000/svg">
<g filter="url(#filter0_i_469_3765)">
<path d="M75.8283 38.7205C72.7464 40.7751 71.1198 37.0083 70.6918 34.8681C70.3379 33.5841 66.8394 34.868 64.2711 32.2997C61.7028 29.7315 64.2711 23.3109 66.8394 22.0268C69.4076 20.7426 65.5552 24.595 73.26 25.8792C80.9649 27.1633 79.6807 36.1523 75.8283 38.7205Z" fill="#DCDBDF"/>
<path d="M15.4736 59.2657C15.4736 60.9779 15.9873 64.1454 18.0419 63.1181C20.6102 61.834 18.0419 55.4133 15.4736 59.2657Z" fill="#DCDBDF"/>
<path d="M23.1786 34.8677C23.1786 37.4359 24.2059 42.0588 28.3151 40.0042C33.4517 37.4359 25.7469 28.447 23.1786 34.8677Z" fill="#DCDBDF"/>
<path d="M43.7244 57.9806C44.1525 60.1209 45.5222 64.1445 47.5768 63.1172C50.1451 61.833 53.9975 54.1282 43.7244 57.9806Z" fill="#DCDBDF"/>
<path d="M24.4624 52.8439C20.3532 50.7893 25.3185 46.8512 28.3148 45.1391C33.4514 43.8547 36.7901 44.3686 39.872 46.4232C43.7244 48.9915 29.5989 55.4121 24.4624 52.8439Z" fill="#DCDBDF"/>
<path d="M59.1343 7.90055C57.8501 10.4688 56.3092 15.6054 60.4184 15.6054C65.5549 15.6054 64.2708 6.61642 59.1343 7.90055Z" fill="#DCDBDF"/>
<path d="M50.507 0.179009C49.8493 2.26017 49.3327 6.56928 52.5278 7.15643C56.5218 7.89035 55.6257 1.53251 50.507 0.179009Z" fill="#DCDBDF"/>
<path d="M82.1992 101.688C77.5937 116.426 63.3932 113.969 56.8687 110.899C41.2104 114.583 30.3872 106.294 26.9325 101.688C23.4784 97.0825 17.2609 86.9511 20.0242 83.2667C23.4784 78.6611 23.4784 84.4181 26.9325 86.7209C30.3867 89.0236 31.5381 85.5695 31.5381 82.1153C31.5381 78.6611 22.327 68.2986 32.6895 63.6931C43.052 59.0875 40.7492 68.2986 41.9006 71.7528C43.052 75.207 48.8089 74.0556 53.4145 69.45C58.0201 64.8445 49.9603 54.482 48.8089 51.0278C47.6575 47.5736 48.8089 28 53.4145 28C58.0201 28 58.0201 32.6056 58.0201 38.3625C58.0201 44.1195 68.3826 45.2708 67.2312 59.0875C66.0798 72.9042 69.5339 70.6009 76.4423 71.7528C83.3506 72.9047 72.9881 63.6926 77.5937 57.9356C82.1992 52.1787 92.5617 67.1468 89.1076 70.6009C85.6534 74.0551 77.5937 80.963 83.3506 85.5686C89.1076 90.1741 97.1673 75.2061 99.4701 83.2658C101.312 89.7136 88.7238 98.2338 82.1992 101.688Z" fill="#DCDBDF"/>
<path d="M86.1015 110.627C88.1561 110.627 90.3819 106.347 91.238 104.206C95.0905 99.0699 101.511 95.2175 104.079 100.354C106.648 105.491 100.227 111.911 92.5222 114.48C84.8173 117.048 83.5332 110.627 86.1015 110.627Z" fill="#DCDBDF"/>
<path d="M104.079 61.8335C102.795 66.114 101.511 74.418 106.648 73.3907C113.068 72.1066 111.784 59.2652 104.079 61.8335Z" fill="#DCDBDF"/>
<path d="M86.5715 38.0751C85.4612 41.5597 84.7263 48.7183 90.6684 49.4758C98.096 50.4227 94.7937 38.0132 86.5715 38.0751Z" fill="#DCDBDF"/>
<path d="M6.48486 51.561C6.91291 53.2732 8.28265 56.4407 10.3373 55.4134C12.9055 54.1293 11.6214 47.7086 6.48486 51.561Z" fill="#DCDBDF"/>
<path d="M7.76889 93.9364C-2.5042 95.2205 1.34821 75.9584 1.34821 74.6743C2.63234 72.106 7.7689 73.3902 6.48476 78.5267C5.20062 83.6633 18.042 92.6522 7.76889 93.9364Z" fill="#DCDBDF"/>
<path d="M9.05343 100.354C8.19734 102.922 8.02612 107.802 14.19 106.775C21.8948 105.491 12.9059 96.5016 9.05343 100.354Z" fill="#DCDBDF"/>
<path d="M18.0421 110.627C18.4702 111.911 19.8399 114.223 21.8945 113.195C24.4628 111.911 20.6104 106.775 18.0421 110.627Z" fill="#DCDBDF"/>
<path d="M64.783 90.0849C62.7284 88.0303 67.3513 89.2288 69.9196 90.0849C69.9196 89.2289 70.4332 87.5171 72.4878 87.5171C75.056 87.5171 72.4878 90.0849 75.056 91.3695C77.6243 92.654 78.9085 92.6536 75.056 93.9377C71.2036 95.2219 67.3513 92.6532 64.783 90.0849Z" fill="#BFBFBF"/>
<path d="M33.9637 92.648C31.9091 90.5934 36.5319 91.7919 39.1002 92.648C39.1002 91.792 39.6139 90.0802 41.6684 90.0802C44.2367 90.0802 41.6684 92.648 44.2367 93.9326C46.805 95.2172 48.0891 95.2167 44.2367 96.5008C40.3843 97.785 36.5319 95.2163 33.9637 92.648Z" fill="#BFBFBF"/>
</g>
<defs>
<filter id="filter0_i_469_3765" x="0.640625" y="0.179016" width="110.118" height="125.18" filterUnits="userSpaceOnUse" color-interpolation-filters="sRGB">
<feFlood flood-opacity="0" result="BackgroundImageFix"/>
<feBlend mode="normal" in="SourceGraphic" in2="BackgroundImageFix" result="shape"/>
<feColorMatrix in="SourceAlpha" type="matrix" values="0 0 0 0 0 0 0 0 0 0 0 0 0 0 0 0 0 0 127 0" result="hardAlpha"/>
<feOffset dy="10.2731"/>
<feGaussianBlur stdDeviation="5.13654"/>
<feComposite in2="hardAlpha" operator="arithmetic" k2="-1" k3="1"/>
<feColorMatrix type="matrix" values="0 0 0 0 0.895833 0 0 0 0 0.895833 0 0 0 0 0.895833 0 0 0 0.2 0"/>
<feBlend mode="normal" in2="shape" result="effect1_innerShadow_469_3765"/>
</filter>
</defs>
</svg>
