<svg width="63" height="37" viewBox="0 0 63 37" fill="none" xmlns="http://www.w3.org/2000/svg">
<rect x="44.8828" y="11.2332" width="17.8716" height="5.34926" rx="2.67463" transform="rotate(-38.9433 44.8828 11.2332)" fill="#FDAB40"/>
<path d="M29.2712 35.6134C16.1813 40.0758 6.07388 32.7249 2.97493 28.2624C15.6186 32.7249 37.1873 24.1718 44.9966 14.5031C45.4925 19.9572 42.3612 31.1509 29.2712 35.6134Z" fill="#FDAB40"/>
<ellipse cx="47.6833" cy="12.4016" rx="2.58595" ry="1.48749" transform="rotate(51.0567 47.6833 12.4016)" fill="#F08800"/>
<path d="M42.1223 15.9655L46.3342 11.7536C46.898 11.1898 47.8121 11.1898 48.3759 11.7536C48.9397 12.3174 48.9397 13.2315 48.3759 13.7953L44.164 18.0072L42.1223 15.9655Z" fill="#FDAB40"/>
<g filter="url(#filter0_i_486_2528)">
<path d="M44.0639 13.3513C45.2467 16.8264 37.0668 23.0187 25.4903 26.959C14.4998 31.5031 3.32454 31.0956 2.14171 27.6205C0.958874 24.1454 9.3846 18.134 20.9611 14.1937C32.5376 10.2533 42.8811 9.87619 44.0639 13.3513Z" fill="#EEEEEE"/>
</g>
<path d="M13.6597 21.9534C9.36659 22.7339 8.13069 27.8076 7.80545 30.2469C13.1719 30.7348 17.734 29.5393 21.4654 28.2955C24.3925 27.3198 30.2468 25.8562 35.6132 22.4412C33.0113 21.4655 27.0269 20.0019 23.9047 21.9534C20.0018 24.3926 19.0261 20.9777 13.6597 21.9534Z" fill="#FDF385"/>
<circle cx="11.2206" cy="26.832" r="0.487855" fill="#EFE470"/>
<circle cx="20.9778" cy="26.832" r="0.487855" fill="#EFE470"/>
<circle cx="15.1236" cy="27.3198" r="0.487855" fill="#EFE470"/>
<circle cx="25.3686" cy="24.3926" r="0.975709" fill="#EFE470"/>
<defs>
<filter id="filter0_i_486_2528" x="2.03094" y="10.9729" width="46.0494" height="23.2276" filterUnits="userSpaceOnUse" color-interpolation-filters="sRGB">
<feFlood flood-opacity="0" result="BackgroundImageFix"/>
<feBlend mode="normal" in="SourceGraphic" in2="BackgroundImageFix" result="shape"/>
<feColorMatrix in="SourceAlpha" type="matrix" values="0 0 0 0 0 0 0 0 0 0 0 0 0 0 0 0 0 0 127 0" result="hardAlpha"/>
<feOffset dx="3.90284" dy="3.90284"/>
<feGaussianBlur stdDeviation="1.95142"/>
<feComposite in2="hardAlpha" operator="arithmetic" k2="-1" k3="1"/>
<feColorMatrix type="matrix" values="0 0 0 0 0.654167 0 0 0 0 0.654167 0 0 0 0 0.654167 0 0 0 0.15 0"/>
<feBlend mode="normal" in2="shape" result="effect1_innerShadow_486_2528"/>
</filter>
</defs>
</svg>
