<svg width="64" height="38" viewBox="0 0 64 38" fill="none" xmlns="http://www.w3.org/2000/svg">
<rect x="46" y="11.5128" width="18.3165" height="5.48243" rx="2.74122" transform="rotate(-38.9433 46 11.5128)" fill="#A4C9FF"/>
<g filter="url(#filter0_i_6_30)">
<path d="M30 36.5001C16.5842 41.0737 6.22515 33.5397 3.04906 28.9661C16.0075 33.5397 38.1132 24.7736 46.1169 14.8642C46.6251 20.4542 43.4158 31.9265 30 36.5001Z" fill="#A4C9FF"/>
</g>
<ellipse cx="48.8704" cy="12.7104" rx="2.65033" ry="1.52453" transform="rotate(51.0567 48.8704 12.7104)" fill="#4671C6"/>
<path d="M43.171 16.3631L47.4878 12.0463C48.0656 11.4685 49.0025 11.4685 49.5803 12.0463C50.1581 12.6242 50.1581 13.561 49.5803 14.1389L45.2635 18.4557L43.171 16.3631Z" fill="#A4C9FF"/>
<g filter="url(#filter1_ii_6_30)">
<path d="M45.1609 13.6838C46.3731 17.2454 37.9896 23.5919 26.1249 27.6303C14.8608 32.2875 3.4073 31.8698 2.19502 28.3082C0.982746 24.7466 9.61823 18.5856 21.4829 14.5471C33.3476 10.5087 43.9486 10.1222 45.1609 13.6838Z" fill="#E4EDFC"/>
</g>
<path d="M14 22.5C9.6 23.3 8.33333 28.5 8 31C13.5 31.5 18.1757 30.2748 22 29C25 28 31 26.5 36.5 23C33.8333 22 27.7 20.5 24.5 22.5C20.5 25 19.5 21.5 14 22.5Z" fill="#FDF385"/>
<circle cx="11.5" cy="27.5" r="0.5" fill="#EFE470"/>
<circle cx="21.5" cy="27.5" r="0.5" fill="#EFE470"/>
<circle cx="15.5" cy="28" r="0.5" fill="#EFE470"/>
<circle cx="26" cy="25" r="1" fill="#EFE470"/>
<defs>
<filter id="filter0_i_6_30" x="3.04906" y="10.8642" width="47.1181" height="27.0569" filterUnits="userSpaceOnUse" color-interpolation-filters="sRGB">
<feFlood flood-opacity="0" result="BackgroundImageFix"/>
<feBlend mode="normal" in="SourceGraphic" in2="BackgroundImageFix" result="shape"/>
<feColorMatrix in="SourceAlpha" type="matrix" values="0 0 0 0 0 0 0 0 0 0 0 0 0 0 0 0 0 0 127 0" result="hardAlpha"/>
<feOffset dx="4" dy="-4"/>
<feGaussianBlur stdDeviation="2"/>
<feComposite in2="hardAlpha" operator="arithmetic" k2="-1" k3="1"/>
<feColorMatrix type="matrix" values="0 0 0 0 0.625399 0 0 0 0 0.745521 0 0 0 0 0.920833 0 0 0 1 0"/>
<feBlend mode="normal" in2="shape" result="effect1_innerShadow_6_30"/>
</filter>
<filter id="filter1_ii_6_30" x="2.08151" y="8.24619" width="47.1958" height="26.8059" filterUnits="userSpaceOnUse" color-interpolation-filters="sRGB">
<feFlood flood-opacity="0" result="BackgroundImageFix"/>
<feBlend mode="normal" in="SourceGraphic" in2="BackgroundImageFix" result="shape"/>
<feColorMatrix in="SourceAlpha" type="matrix" values="0 0 0 0 0 0 0 0 0 0 0 0 0 0 0 0 0 0 127 0" result="hardAlpha"/>
<feOffset dx="4" dy="4"/>
<feGaussianBlur stdDeviation="2"/>
<feComposite in2="hardAlpha" operator="arithmetic" k2="-1" k3="1"/>
<feColorMatrix type="matrix" values="0 0 0 0 0.654167 0 0 0 0 0.654167 0 0 0 0 0.654167 0 0 0 0.15 0"/>
<feBlend mode="normal" in2="shape" result="effect1_innerShadow_6_30"/>
<feColorMatrix in="SourceAlpha" type="matrix" values="0 0 0 0 0 0 0 0 0 0 0 0 0 0 0 0 0 0 127 0" result="hardAlpha"/>
<feOffset dx="4" dy="-3"/>
<feGaussianBlur stdDeviation="2"/>
<feComposite in2="hardAlpha" operator="arithmetic" k2="-1" k3="1"/>
<feColorMatrix type="matrix" values="0 0 0 0 0 0 0 0 0 0 0 0 0 0 0 0 0 0 0.05 0"/>
<feBlend mode="normal" in2="effect1_innerShadow_6_30" result="effect2_innerShadow_6_30"/>
</filter>
</defs>
</svg>
