<svg width="58" height="58" viewBox="0 0 58 58" fill="none" xmlns="http://www.w3.org/2000/svg">
<path fill-rule="evenodd" clip-rule="evenodd" d="M30.7485 19.6965C31.2184 19.7141 31.6884 19.7316 32.1586 19.7493C32.4529 19.8766 32.7473 20.004 33.0417 20.1314C33.9518 20.4736 34.8407 20.8697 35.7038 21.3174C36.7011 21.8329 37.6766 22.3475 38.5374 23.0041L39.6577 24.0583C39.9915 24.3526 40.3253 24.6469 40.6592 24.9411C41.2666 25.6474 41.7811 26.4177 42.2802 27.234C42.5795 27.7233 42.9614 28.2217 43.1896 28.7626C43.4401 29.4215 43.6905 30.0803 43.9409 30.7392C44.121 31.5166 44.3011 32.2941 44.4812 33.0716C44.8056 34.2637 44.8305 35.503 45.0084 36.6296C45.0977 37.1956 45.1016 37.8691 45.0084 38.3294C44.9733 38.7116 44.9382 39.0937 44.9029 39.4759C44.8591 39.7043 44.8152 39.9327 44.7712 40.1611C44.5919 40.9119 44.4403 41.6955 44.1649 42.4013C43.8915 43.102 43.6867 43.7975 43.3874 44.457C43.3127 44.6458 43.238 44.8347 43.1633 45.0235C42.6889 45.7879 42.2144 46.5522 41.7399 47.3165C41.4017 47.6504 41.0634 47.9842 40.7251 48.318C40.011 49.032 39.2902 49.8108 38.4715 50.4132L37.1799 51.2038L34.9263 52.5612C34.4438 52.8051 33.9813 52.9233 33.4502 53.1277C33.2789 53.2068 33.1075 53.2858 32.9362 53.3649C32.6682 53.3387 32.4002 53.3123 32.1323 53.2859C31.4602 53.2463 30.7881 53.2068 30.1159 53.1673C29.1627 53.1542 28.2093 53.141 27.2559 53.1277C26.6921 53.0322 26.0469 52.866 25.4635 52.7456C25.0594 52.7017 24.6552 52.6578 24.2511 52.6139C23.948 52.425 23.6449 52.2361 23.3417 52.0472C22.4249 51.4356 21.5629 50.7805 20.798 50.0179C18.8301 48.0552 17.394 45.6016 16.4489 42.6122C16.2385 41.9464 16.1489 41.2411 15.9745 40.53C15.8256 39.9232 15.7898 39.2452 15.6714 38.5667C15.6581 38.2592 15.6449 37.9517 15.6318 37.6443V36.2737C15.6854 35.965 15.6239 35.6364 15.6714 35.3645C15.6977 34.9736 15.7241 34.5827 15.7504 34.1917C16.0135 32.8349 16.1943 31.4425 16.6467 30.278C16.9969 29.3763 17.2987 28.432 17.7668 27.6294C18.1238 27.0175 18.4341 26.3803 18.8344 25.8109C20.5059 23.433 22.5545 21.4869 25.5294 20.4082C26.4478 20.0751 27.46 19.9182 28.5079 19.7493C29.2547 19.7317 30.0016 19.7142 30.7485 19.6965Z" fill="#FFF3E3" fill-opacity="0.8" stroke="white" stroke-width="0.00584383"/>
<path fill-rule="evenodd" clip-rule="evenodd" d="M32.5665 18.7397L33.4654 18.8872C33.7611 18.9051 34.0568 18.923 34.3525 18.9408C35.0156 19.0691 35.6081 19.1095 36.2823 19.2625C36.8416 19.3786 37.4009 19.4947 37.9604 19.6109C38.5516 19.7717 39.1428 19.9326 39.7343 20.0934C40.4665 20.3702 41.3108 20.6248 42.0357 20.8842C42.667 21.1121 43.2983 21.3399 43.9295 21.5678C44.8918 22.026 45.6312 22.8376 46.3986 23.5245C46.5066 23.6719 46.6145 23.8194 46.7223 23.9669C47.014 24.3986 47.3018 24.8294 47.5853 25.2803C48.7965 27.2065 49.6457 29.4843 50.3302 32.0086C50.6002 33.0045 50.6681 34.1833 50.8456 35.252C50.9413 35.8282 50.8411 36.454 50.9294 37.0749C51.0089 37.6324 50.9733 38.6105 50.8936 39.1121C50.8002 39.699 50.8337 40.3085 50.7377 40.8277C50.5726 41.721 50.5371 42.6225 50.3182 43.4412C49.6481 45.9465 48.7759 48.1002 47.6213 50.0354C47.0452 51.001 46.4314 52.0793 45.6316 52.7964C45.4198 53.0153 45.208 53.2342 44.9962 53.4532C44.8126 53.5202 44.6288 53.5872 44.4449 53.6542C43.9335 53.8606 43.4678 54.1164 42.8747 54.2305H41.3885C40.9621 54.2993 40.1408 54.3833 39.6984 54.2976C39.4346 54.2886 39.1709 54.2796 38.9072 54.2708H38.5117C38.1219 54.1996 37.7577 54.2316 37.433 54.1634C36.5864 53.9861 35.6206 54.0366 34.8199 53.9223C34.4604 53.8999 34.1008 53.8776 33.7412 53.8552C33.7491 53.8508 33.7571 53.8463 33.7652 53.8419C33.9483 53.6402 34.2618 53.546 34.4963 53.4397L35.623 52.783C36.8616 51.8962 38.0753 50.9938 39.2309 50.022C39.8365 49.5127 40.4867 49.0335 40.9689 48.3868C41.1867 48.0948 41.3814 47.7575 41.5562 47.4219C41.6282 47.2566 41.7001 47.0913 41.772 46.926C42.3708 45.9793 42.8966 45.0339 43.3062 43.8567C43.4593 43.4169 43.5065 42.9177 43.6539 42.3824C43.7896 41.8106 43.9254 41.2388 44.0614 40.6669C44.1758 40.381 44.199 40.0384 44.2651 39.7018C44.4419 38.8035 44.638 37.5101 44.5048 36.6058C44.5128 36.1099 44.5208 35.6139 44.5289 35.118C44.3945 34.2275 44.4351 33.5399 44.2531 32.7324C44.0279 31.7324 43.707 30.6582 43.3183 29.7301C43.0978 29.2039 42.985 28.6336 42.7308 28.1486C41.7545 26.2853 40.4993 24.5776 39.147 23.1225C38.719 22.6619 38.2178 22.3761 37.6847 22.0234C37.2112 21.7103 36.7527 21.3626 36.2343 21.0852C35.8585 20.8842 35.4514 20.7887 35.0237 20.643C34.6682 20.4956 34.3126 20.3481 33.957 20.2007C33.6106 20.0688 33.2691 20.055 32.8781 19.9594C32.6465 19.8745 32.4148 19.7896 32.183 19.7048C31.4417 19.4844 30.6808 19.6155 29.9056 19.4769C29.6578 19.4325 29.1187 19.5316 29.0066 19.4368C29.1599 19.2954 29.4818 19.2743 29.6898 19.2088C30.3139 19.0123 31.012 18.9407 31.7274 18.8068C32.0071 18.7844 32.2868 18.762 32.5665 18.7397Z" fill="#FF8B00" stroke="white" stroke-width="0.00584383"/>
<path fill-rule="evenodd" clip-rule="evenodd" d="M38.2499 16.167L39.2175 16.1949L39.539 16.473C39.7402 16.5891 39.9414 16.7052 40.1426 16.8214C40.6832 17.1101 41.2283 17.3528 41.8509 17.4872C42.0496 17.4925 42.2484 17.4977 42.4472 17.503C42.75 18.2083 43.2442 18.941 43.6488 19.3923C43.8127 19.5457 43.9765 19.6991 44.1403 19.8527L43.9065 20.7787C43.8382 20.9583 43.7699 21.1378 43.7017 21.3173C42.6654 20.8905 41.6291 20.4637 40.5927 20.0368C40.0914 19.8386 39.4039 19.6198 38.849 19.6536C38.2595 19.5322 37.6698 19.4109 37.0801 19.2896C36.3825 19.1185 35.5973 19.2628 34.8076 19.3423C35.0384 18.4456 35.4151 17.608 35.6486 16.6782C36.325 16.6739 37.7805 16.5844 38.2499 16.167Z" fill="#FAFAFA" stroke="white" stroke-width="0.00584383"/>
<path fill-rule="evenodd" clip-rule="evenodd" d="M46.3171 10.7568C49.0624 10.719 50.8535 12.2996 51.6132 14.1124C52.0988 15.271 51.9098 17.1018 51.3331 18.0134C50.7162 18.9888 49.9006 19.6522 48.6978 20.0884C48.27 20.2435 47.6823 20.4629 47.1192 20.3612C46.892 20.3201 46.6756 20.2185 46.4316 20.1714C46.1278 20.1127 45.8362 20.1346 45.5786 20.0409C44.9223 19.8023 44.2999 19.3657 43.758 18.9976C43.5925 18.8909 43.4271 18.7842 43.2616 18.6773C43.1597 18.5707 43.0578 18.464 42.956 18.3573C42.6824 18.1513 42.2807 17.9313 42.1539 17.5984C41.4083 17.61 40.7068 17.497 40.1933 17.2664C39.804 17.0915 39.4948 16.7944 39.0094 16.7446C38.708 16.7882 38.4067 16.8317 38.1055 16.875H36.9597C36.5034 16.8072 36.075 16.8746 35.6738 16.7922C34.8645 16.6255 34.2182 16.3409 33.5732 16.0569C33.4415 16.0333 33.31 16.0096 33.1784 15.9859C32.9621 15.8989 32.7456 15.8119 32.5291 15.725C31.0995 14.9511 29.9419 13.8761 29.3974 12.2745C29.0674 11.3045 28.8444 9.87116 29.1554 8.70549C29.3777 7.87213 29.6594 7.09011 30.0848 6.44077C31.2562 4.65249 33.1413 3.35815 35.6101 2.7769C36.8099 2.49444 38.5767 2.45151 39.7605 2.78876C42.6383 3.60848 44.5399 5.3794 45.6041 7.8992C45.9581 8.73759 46.3167 9.60353 46.3171 10.7568Z" fill="#FAFAFA"/>
<path fill-rule="evenodd" clip-rule="evenodd" d="M46.7826 10.3737C49.6133 10.3203 51.6177 12.0761 52.4507 14.0458C53.0416 15.4428 52.8955 17.3728 52.2118 18.5457C51.3512 20.0219 50.0966 20.883 48.1234 21.2563C47.7151 21.3336 47.0674 21.3627 46.6234 21.283C46.3358 21.2296 46.0482 21.1762 45.7605 21.1228C45.5526 21.056 45.3447 20.9893 45.1367 20.9225C44.8136 21.4966 44.4906 22.0707 44.1676 22.645C43.6809 22.3779 43.1942 22.1109 42.7075 21.8439C43.0216 21.2608 43.3357 20.6777 43.6499 20.0946H43.6234C43.4818 19.9789 43.3402 19.8632 43.1986 19.7474C42.8135 19.4358 42.402 18.9973 42.1499 18.559C41.0828 18.6716 40.0503 18.1333 39.3623 17.7311C39.1588 17.611 38.9553 17.4908 38.7517 17.3706C38.6149 17.333 38.2069 17.5645 38.0615 17.5977C37.4933 17.7269 36.7918 17.6742 36.2296 17.5977C35.7119 18.5278 35.1942 19.458 34.6765 20.3884C34.1854 20.1169 33.6943 19.8454 33.203 19.5738C33.6057 18.8484 34.0084 18.1229 34.411 17.3974C34.2208 17.3439 34.0305 17.2904 33.8403 17.2371C33.5173 17.1169 33.1943 16.9967 32.8713 16.8766C31.76 16.3887 30.6884 15.6271 29.9774 14.7268C29.3389 13.9183 28.7721 13.0395 28.4244 11.936C28.283 11.4879 28.2101 11.0112 28.119 10.5072C27.9667 9.66519 28.0909 8.57625 28.265 7.89008C28.8719 5.49787 29.8997 4.40693 31.5039 3.04298C31.6381 2.92896 31.8141 2.86266 31.9552 2.76257C33.9484 1.35011 37.4126 0.440563 40.411 1.61422C43.1242 2.67624 45.0335 4.52418 46.0658 7.27584C46.3984 8.16241 46.7801 9.20048 46.7826 10.3737ZM37.0526 2.76257L36.3358 2.81597C35.8418 2.9086 35.3711 2.98277 34.9287 3.12309C32.7864 3.8027 30.9302 5.40146 30.1235 7.43608C29.9746 7.81148 29.8925 8.23307 29.8048 8.66461C29.6204 9.57279 29.7934 10.6625 30.0172 11.3752C30.6591 13.4197 32.0637 14.7582 33.9862 15.5147C34.7168 15.8021 35.8078 15.97 36.7871 15.795L36.7075 15.715C36.4774 15.4301 36.2473 15.1452 36.0172 14.8603C35.5942 14.2548 35.2618 13.5304 34.9951 12.7773C34.7822 12.1761 34.8397 11.4588 35.4331 11.2684C36.4263 10.9498 36.6749 12.538 36.9464 13.0844C37.8693 14.9419 39.344 15.8176 41.2208 16.7164C41.1512 16.5199 41.0259 16.225 41.0747 15.9552C41.162 15.4723 41.6407 14.9561 42.2562 15.2476C42.7487 15.4808 42.7235 16.0208 42.9331 16.5428C43.1003 16.9594 43.3208 17.3172 43.5702 17.6511C44.1594 18.4394 44.9111 19.0886 45.9464 19.427C48.1199 20.1375 49.9803 19.0542 50.7782 17.6778C50.9214 17.4309 51.0218 17.1114 51.0968 16.8099C51.661 14.5423 49.6966 12.6621 48.1234 12.2298C47.6379 12.0964 46.9004 12.0745 46.3446 12.1364C45.9824 12.1767 45.5569 12.1419 45.4154 11.9494C45.2218 11.686 45.2505 11.2039 45.1765 10.8278C45.0088 9.97587 44.9506 9.1437 44.6986 8.39755C43.6364 5.25228 41.2271 2.76125 37.0526 2.76257Z" fill="#FDAB40" stroke="#FDAB40" stroke-width="0.00584383"/>
<path fill-rule="evenodd" clip-rule="evenodd" d="M32.2136 18.5831C33.6693 18.5722 35.1312 18.592 36.3903 18.8231C37.1801 18.9032 37.97 18.9832 38.7601 19.0632C40.8426 19.5552 42.7177 20.0385 44.3246 21.0637C44.6039 21.2948 44.8832 21.5259 45.1625 21.7571C45.6568 22.155 46.1698 22.6043 46.5634 23.1041C46.9899 23.6457 47.4958 24.1296 47.912 24.6912C48.9476 26.0884 49.7884 27.6302 50.4913 29.3723C51.0196 30.6814 51.3696 32.0996 51.7089 33.64C51.8445 34.2552 51.8386 34.8748 51.9447 35.5338C52.0428 36.1441 52.0362 36.8204 52.0363 37.5076C52.0319 37.7964 52.0275 38.0854 52.0232 38.3744C52.0189 38.561 52.0146 38.7477 52.0101 38.9345C51.9578 39.4902 51.9054 40.0459 51.853 40.6016C51.5062 42.4926 51.1766 44.203 50.5306 45.7628C49.8077 47.5082 48.9565 49.0842 47.912 50.4973C47.4965 51.0595 46.9903 51.543 46.5634 52.0843C46.2008 52.5443 45.7207 52.9981 45.2673 53.3646C44.995 53.5847 44.7302 53.9052 44.3639 54.0181C44.2462 54.0543 44.1313 53.97 44.0627 53.9781C44.0016 54.0092 43.9405 54.0403 43.8794 54.0715C43.7804 54.0962 43.6847 54.0569 43.6306 54.0314C43.4691 54.1204 43.3077 54.2093 43.1463 54.2982C42.9955 54.3746 42.4101 54.4282 42.3213 54.2848C42.1657 54.0877 42.3625 53.7688 42.5308 53.7114V53.698L41.8893 53.7514C41.8937 53.7425 41.8981 53.7336 41.9023 53.7247C42.3271 53.587 42.7348 53.2015 43.0808 52.9512C43.9568 52.3169 44.8492 51.6111 45.5161 50.764C46.131 49.9828 46.8098 49.2604 47.349 48.3901C48.3667 46.7476 49.1147 44.9623 49.732 42.8821C49.9252 42.2308 50.0013 41.5657 50.1379 40.855C50.2415 40.3158 50.2492 39.7113 50.3473 39.1345C50.3561 38.899 50.3648 38.6634 50.3735 38.4277C50.4262 38.0909 50.4449 37.5837 50.3866 37.2409C50.3735 36.8452 50.3604 36.4496 50.3473 36.0539C50.2048 35.1763 50.2023 34.3138 50.0069 33.5067C49.7977 32.6423 49.6389 31.772 49.3391 30.986C48.527 28.8558 47.7099 27.2403 46.4718 25.5714C46.0073 24.9453 45.4992 24.2733 44.9006 23.7842C44.7305 23.6154 44.5603 23.4465 44.3901 23.2776C43.8136 22.8071 43.2528 22.2885 42.6094 21.8904C42.3563 21.7883 42.1031 21.6861 41.85 21.5838C40.7362 21.06 39.3289 20.9391 37.9352 20.6635L36.6652 20.5169C36.4296 20.468 36.1939 20.4191 35.9582 20.3701C35.7709 20.3 35.6035 20.1615 35.369 20.1034C34.3654 19.9123 33.3616 19.7211 32.3576 19.5299C31.2889 19.3123 30.2546 19.3579 29.176 19.1832C28.9525 19.147 28.1523 19.1893 28.05 19.0898L29.3332 18.8631C29.7433 18.8098 30.1536 18.7565 30.564 18.703L32.2136 18.5831Z" fill="#FF8B00"/>
<path fill-rule="evenodd" clip-rule="evenodd" d="M30.3344 19.6965C38.4544 19.6965 45.0369 27.2335 45.0369 36.5307C45.0369 45.828 38.4544 53.3649 30.3344 53.3649C22.2144 53.3649 15.6318 45.828 15.6318 36.5307C15.6318 27.2335 22.2144 19.6965 30.3344 19.6965Z" stroke="#FFA837" stroke-width="1.65699"/>
<path fill-rule="evenodd" clip-rule="evenodd" d="M29.9284 27.0668C31.1294 27.0523 30.9192 27.9039 30.9191 28.935V30.3002C30.8971 34.3356 30.8751 38.3714 30.8531 42.4076C30.8487 43.2418 30.8443 44.0762 30.8398 44.9105C30.84 45.3888 30.8691 45.8555 30.6417 46.12C30.4923 46.2939 30.0626 46.4703 29.6378 46.3715C29.1559 46.2594 28.5744 46.1287 28.132 45.9523C25.8596 45.0469 24.3148 42.7765 23.6012 40.4196C23.3015 39.4299 23.0568 37.626 23.2974 36.3838C23.4239 35.7306 23.4865 35.0852 23.6805 34.4917C24.5258 31.9057 25.8228 29.3439 27.9735 27.953C28.3205 27.7285 28.6993 27.4869 29.1094 27.3303L29.9284 27.0668Z" fill="#FF8B00" stroke="white" stroke-width="0.00584383"/>
<path fill-rule="evenodd" clip-rule="evenodd" d="M17.7649 35.662L17.7657 35.6487L19.3915 35.747L19.3907 35.7602L17.7649 35.662Z" stroke="#FF8B00" stroke-width="1.65699" stroke-linejoin="round"/>
<path fill-rule="evenodd" clip-rule="evenodd" d="M21.5957 25.765L21.6049 25.7559L22.7197 26.888L22.7104 26.8971L21.5957 25.765Z" stroke="#FF8B00" stroke-width="1.65699" stroke-linejoin="round"/>
<path fill-rule="evenodd" clip-rule="evenodd" d="M21.5248 44.3245L21.5347 44.3328L20.5049 45.5428L20.4951 45.5344L21.5248 44.3245Z" stroke="#FF8B00" stroke-width="1.65699" stroke-linejoin="round"/>
<path fill-rule="evenodd" clip-rule="evenodd" d="M30.376 49.5715L30.3889 49.5718L30.3538 51.1603L30.3408 51.16L30.376 49.5715Z" stroke="#FF8B00" stroke-width="1.65699" stroke-linejoin="round"/>
<path fill-rule="evenodd" clip-rule="evenodd" d="M38.3035 44.9833L38.3126 44.9741L39.4275 46.1062L39.4182 46.1154L38.3035 44.9833Z" stroke="#FF8B00" stroke-width="1.65699" stroke-linejoin="round"/>
<path fill-rule="evenodd" clip-rule="evenodd" d="M41.0601 36.5382L41.0609 36.5249L42.6866 36.6232L42.6858 36.6365L41.0601 36.5382Z" stroke="#FF8B00" stroke-width="1.65699" stroke-linejoin="round"/>
<path fill-rule="evenodd" clip-rule="evenodd" d="M39.3349 26.3281L39.3447 26.3365L38.315 27.5464L38.3052 27.5381L39.3349 26.3281Z" stroke="#FF8B00" stroke-width="1.65699" stroke-linejoin="round"/>
<path fill-rule="evenodd" clip-rule="evenodd" d="M30.3228 21.8533L30.3357 21.8535L30.3006 23.442L30.2876 23.4417L30.3228 21.8533Z" stroke="#FF8B00" stroke-width="1.65699" stroke-linejoin="round"/>
<path fill-rule="evenodd" clip-rule="evenodd" d="M15.2744 14.405L15.3236 14.374L19.1201 20.3912L19.071 20.4223L15.2744 14.405Z" stroke="#F8795D" stroke-width="1.65699" stroke-linejoin="round"/>
<path fill-rule="evenodd" clip-rule="evenodd" d="M8.06323 21.9063L8.09431 21.8574L14.1027 25.668L14.0716 25.717L8.06323 21.9063Z" stroke="#EE5A39" stroke-width="1.65699" stroke-linejoin="round"/>
<path fill-rule="evenodd" clip-rule="evenodd" d="M5.24585 31.2292L5.25711 31.1724L12.2367 32.553L12.2254 32.6099L5.24585 31.2292Z" stroke="#FF896F" stroke-width="1.65699" stroke-linejoin="round"/>
<path fill-rule="evenodd" clip-rule="evenodd" d="M19.4834 54.3407V54.3274L47.9322 54.354V54.3672L19.4834 54.3407Z" stroke="#FFA837" stroke-width="1.65699" stroke-linejoin="round"/>
</svg>
