<svg width="116" height="70" viewBox="0 0 116 70" fill="none" xmlns="http://www.w3.org/2000/svg">
<rect x="83.7782" y="21.4681" width="33.3592" height="9.98496" rx="4.99248" transform="rotate(-38.9433 83.7782 21.4681)" fill="#FDAB40"/>
<path d="M54.638 66.9765C30.2042 75.3062 11.3377 61.5848 5.55316 53.2551C29.154 61.5848 69.4142 45.6195 83.9912 27.5719C84.9167 37.7526 79.0718 58.6468 54.638 66.9765Z" fill="#FDAB40"/>
<ellipse cx="89.0062" cy="23.6492" rx="4.82695" ry="2.77657" transform="rotate(51.0567 89.0062 23.6492)" fill="#F08800"/>
<path d="M78.6256 30.3017L86.4876 22.4397C87.54 21.3873 89.2463 21.3873 90.2987 22.4397C91.351 23.4921 91.351 25.1984 90.2987 26.2508L82.4367 34.1128L78.6256 30.3017Z" fill="#FDAB40"/>
<g filter="url(#filter0_i_357_521)">
<path d="M82.2499 25.4219C84.4578 31.9085 69.189 43.4671 47.5803 50.8222C27.0655 59.3042 6.2056 58.5435 3.99772 52.0569C1.78984 45.5703 17.5173 34.3494 39.1261 26.9943C60.7348 19.6393 80.042 18.9353 82.2499 25.4219Z" fill="#EEEEEE"/>
</g>
<path d="M25.4977 41.4786C17.4842 42.9356 15.1772 52.4062 14.5701 56.9594C24.5871 57.87 33.1028 55.6385 40.0678 53.3168C45.5316 51.4956 56.4592 48.7637 66.4762 42.3892C61.6195 40.568 50.449 37.8361 44.621 41.4786C37.3359 46.0318 35.5147 39.6573 25.4977 41.4786Z" fill="#FDF385"/>
<circle cx="20.9446" cy="50.5849" r="0.910632" fill="#EFE470"/>
<circle cx="39.1572" cy="50.5849" r="0.910632" fill="#EFE470"/>
<circle cx="28.2296" cy="51.4956" r="0.910632" fill="#EFE470"/>
<circle cx="47.3529" cy="46.0318" r="1.82126" fill="#EFE470"/>
<defs>
<filter id="filter0_i_357_521" x="3.79095" y="20.9824" width="85.9561" height="43.3568" filterUnits="userSpaceOnUse" color-interpolation-filters="sRGB">
<feFlood flood-opacity="0" result="BackgroundImageFix"/>
<feBlend mode="normal" in="SourceGraphic" in2="BackgroundImageFix" result="shape"/>
<feColorMatrix in="SourceAlpha" type="matrix" values="0 0 0 0 0 0 0 0 0 0 0 0 0 0 0 0 0 0 127 0" result="hardAlpha"/>
<feOffset dx="7.28506" dy="7.28506"/>
<feGaussianBlur stdDeviation="3.64253"/>
<feComposite in2="hardAlpha" operator="arithmetic" k2="-1" k3="1"/>
<feColorMatrix type="matrix" values="0 0 0 0 0.654167 0 0 0 0 0.654167 0 0 0 0 0.654167 0 0 0 0.15 0"/>
<feBlend mode="normal" in2="shape" result="effect1_innerShadow_357_521"/>
</filter>
</defs>
</svg>
