<svg width="32" height="23" viewBox="0 0 32 23" fill="none" xmlns="http://www.w3.org/2000/svg">
<path d="M15.9999 1.81433C9.74753 1.81432 2.58412 5.48629 1.81436 6.86086C1.81436 6.86086 10.4418 8.02079 15.9999 8.0155C21.4939 8.01028 30.0205 6.86086 30.0205 6.86086C26.5566 4.8265 22.5979 1.81434 15.9999 1.81433Z" fill="#FFEED7"/>
<mask id="path-2-inside-1_357_1856" fill="white">
<rect x="28.3711" y="7.91742" width="3.62887" height="3.95876" rx="0.659794"/>
</mask>
<rect x="28.3711" y="7.91742" width="3.62887" height="3.95876" rx="0.659794" stroke="#FEE0B7" stroke-width="1.97938" mask="url(#path-2-inside-1_357_1856)"/>
<mask id="path-3-inside-2_357_1856" fill="white">
<rect y="7.91742" width="3.62887" height="3.95876" rx="0.659794"/>
</mask>
<rect y="7.91742" width="3.62887" height="3.95876" rx="0.659794" stroke="#FEE0B7" stroke-width="1.97938" mask="url(#path-3-inside-2_357_1856)"/>
<path fill-rule="evenodd" clip-rule="evenodd" d="M17.4846 2.34969C18.0879 2.10785 18.4743 1.73625 18.4743 1.31953C18.4743 0.590738 17.2927 -6.10352e-05 15.8351 -6.10352e-05C14.3775 -6.10352e-05 13.1959 0.590738 13.1959 1.31953C13.1959 1.73625 13.5823 2.10786 14.1856 2.3497V3.62644L14.1856 3.62887C14.1856 3.81107 14.9241 3.95877 15.8351 3.95877C16.7461 3.95877 17.4845 3.81107 17.4845 3.62887V3.62883H17.4846V2.34969Z" fill="#F08800"/>
<path fill-rule="evenodd" clip-rule="evenodd" d="M15.6702 8.01554C10.1762 8.00521 1.64954 6.8609 1.64954 6.8609L4.28871 19.397H4.30852C4.6651 20.8689 9.7632 22.0362 15.9999 22.0362C22.2367 22.0362 27.3348 20.8689 27.6913 19.397H27.7114L30.0207 6.8609C30.0207 6.8609 21.2925 8.02611 15.6702 8.01554Z" fill="#FF970F"/>
</svg>
