<svg width="57" height="46" viewBox="0 0 57 46" fill="none" xmlns="http://www.w3.org/2000/svg">
<g filter="url(#filter0_ii_5_64)">
<path fill-rule="evenodd" clip-rule="evenodd" d="M35.6746 20.173C35.6746 20.0073 35.8089 19.873 35.9746 19.873H40.4286H41.4286H45.9524H46.1825H55.1587C56.1756 19.873 57 20.6974 57 21.7143V23.2971C57 24.325 56.1584 25.1538 55.1306 25.1381L42.254 24.9415C42.1615 24.9401 42.0736 24.9814 42.0156 25.0535L41.9246 25.1667L40.4393 26.7662C40.4381 26.7675 40.4374 26.769 40.4372 26.7707C40.4366 26.7748 40.4331 26.7778 40.429 26.7778H40.4286H35.9746C35.8089 26.7778 35.6746 26.6435 35.6746 26.4778V20.173Z" fill="#4671C6"/>
</g>
<g filter="url(#filter1_ii_5_64)">
<path d="M34.8561 12.0108C32.4159 12.0108 31.9391 13.3628 32.0058 14.1803C32.0154 14.297 32.0294 14.4133 32.0294 14.5304V15.8683C32.0294 16.8628 32.8191 17.6775 33.813 17.7087L37.5698 17.8264L42.0661 17.9567C42.8854 17.9804 43.5624 17.3227 43.5624 16.503C43.5624 15.6999 44.2135 15.0488 45.0167 15.0488H52.0303C52.843 15.0488 53.463 15.7812 54.207 16.1083C54.3063 16.1519 54.414 16.1772 54.5301 16.1772C56 16.1772 56 16.1772 56 14.6148C55.9095 12.3233 53.3994 11.924 52.1557 12.0108H34.8561Z" fill="#4671C6"/>
</g>
<g filter="url(#filter2_ii_5_64)">
<path d="M0 20.7453C0 20.2369 0.412182 19.8247 0.920635 19.8247H4.14286V23.9675H0.920634C0.412182 23.9675 0 23.5554 0 23.0469V20.7453Z" fill="#4671C6"/>
</g>
<g filter="url(#filter3_i_5_64)">
<path d="M4.14287 20.5152H36.5952V43.3009C36.5952 44.572 35.5648 45.6025 34.2937 45.6025H6.44445C5.17332 45.6025 4.14287 44.572 4.14287 43.3009V20.5152Z" fill="#A4C9FF"/>
</g>
<g filter="url(#filter4_i_5_64)">
<path d="M34.754 16.2362C33.373 15.1928 29 13.035 21.5198 12.9698C14.0397 12.9046 8.50138 14.891 6.20932 16.2362H34.754Z" fill="#E0EBFC"/>
</g>
<path d="M3.22223 17.0628C3.22223 16.5543 3.63441 16.1422 4.14286 16.1422H36.5952C37.1037 16.1422 37.5159 16.5543 37.5159 17.0628V19.5945C37.5159 20.103 37.1037 20.5152 36.5952 20.5152H4.14286C3.63441 20.5152 3.22223 20.103 3.22223 19.5945V17.0628Z" fill="#F9A7A7"/>
<g filter="url(#filter5_i_5_64)">
<rect x="17.7222" y="6.75397" width="5.29365" height="2.30159" rx="0.460317" fill="#F9A7A7"/>
</g>
<g filter="url(#filter6_i_5_64)">
<rect x="18.873" y="9.05557" width="2.99206" height="1.61111" fill="#F9A7A7"/>
</g>
<g filter="url(#filter7_i_5_64)">
<rect x="17.7222" y="10.6667" width="5.29365" height="2.30159" fill="#F9A7A7"/>
</g>
<g filter="url(#filter8_f_5_64)">
<rect x="27.0086" y="5.91742" width="0.995598" height="3.90809" rx="0.497799" transform="rotate(45 27.0086 5.91742)" fill="#E0EBFC"/>
</g>
<g filter="url(#filter9_f_5_64)">
<rect x="27.9923" y="6.84259" width="0.995598" height="5.73572" rx="0.497799" transform="rotate(45 27.9923 6.84259)" fill="#E0EBFC"/>
</g>
<g filter="url(#filter10_f_5_64)">
<rect x="17.6532" y="9.82608" width="0.995598" height="5.20468" rx="0.497799" transform="rotate(135 17.6532 9.82608)" fill="#E0EBFC"/>
</g>
<g filter="url(#filter11_f_5_64)">
<rect x="16.728" y="10.8097" width="0.995598" height="5.31897" rx="0.497799" transform="rotate(135 16.728 10.8097)" fill="#E0EBFC"/>
</g>
<g filter="url(#filter12_f_5_64)">
<path fill-rule="evenodd" clip-rule="evenodd" d="M7.40403 4.98255C6.95514 4.56254 6.67461 3.96483 6.67461 3.30159C6.67461 2.03046 7.70506 1 8.97619 1C9.61293 1 10.1893 1.25857 10.606 1.67643C10.9874 1.3959 11.4585 1.23016 11.9683 1.23016C13.2394 1.23016 14.2698 2.26062 14.2698 3.53175C14.2698 4.80288 13.2394 5.83334 11.9683 5.83334C11.8862 5.83334 11.8052 5.82905 11.7254 5.82068C11.7338 5.90047 11.7381 5.98148 11.7381 6.06349C11.7381 7.33462 10.7076 8.36508 9.4365 8.36508C8.16537 8.36508 7.13491 7.33462 7.13491 6.06349C7.13491 5.6728 7.23226 5.30484 7.40403 4.98255Z" fill="#E0EBFC"/>
</g>
<g filter="url(#filter13_f_5_64)">
<path fill-rule="evenodd" clip-rule="evenodd" d="M33.334 4.98256C33.7829 4.56255 34.0635 3.96483 34.0635 3.30159C34.0635 2.03046 33.033 1 31.7619 1C31.1251 1 30.5488 1.25857 30.1321 1.67644C29.7507 1.3959 29.2796 1.23016 28.7698 1.23016C27.4987 1.23016 26.4682 2.26062 26.4682 3.53175C26.4682 4.80288 27.4987 5.83334 28.7698 5.83334C28.8518 5.83334 28.9328 5.82905 29.0126 5.82068C29.0043 5.90047 29 5.98148 29 6.06349C29 7.33462 30.0304 8.36508 31.3016 8.36508C32.5727 8.36508 33.6032 7.33462 33.6032 6.06349C33.6032 5.6728 33.5058 5.30485 33.334 4.98256Z" fill="#E0EBFC"/>
</g>
<defs>
<filter id="filter0_ii_5_64" x="34.754" y="18.9524" width="23.1667" height="8.74602" filterUnits="userSpaceOnUse" color-interpolation-filters="sRGB">
<feFlood flood-opacity="0" result="BackgroundImageFix"/>
<feBlend mode="normal" in="SourceGraphic" in2="BackgroundImageFix" result="shape"/>
<feColorMatrix in="SourceAlpha" type="matrix" values="0 0 0 0 0 0 0 0 0 0 0 0 0 0 0 0 0 0 127 0" result="hardAlpha"/>
<feOffset dx="-0.920635" dy="0.920635"/>
<feGaussianBlur stdDeviation="0.920635"/>
<feComposite in2="hardAlpha" operator="arithmetic" k2="-1" k3="1"/>
<feColorMatrix type="matrix" values="0 0 0 0 1 0 0 0 0 1 0 0 0 0 1 0 0 0 0.15 0"/>
<feBlend mode="normal" in2="shape" result="effect1_innerShadow_5_64"/>
<feColorMatrix in="SourceAlpha" type="matrix" values="0 0 0 0 0 0 0 0 0 0 0 0 0 0 0 0 0 0 127 0" result="hardAlpha"/>
<feOffset dx="0.920635" dy="-0.920635"/>
<feGaussianBlur stdDeviation="0.920635"/>
<feComposite in2="hardAlpha" operator="arithmetic" k2="-1" k3="1"/>
<feColorMatrix type="matrix" values="0 0 0 0 0 0 0 0 0 0 0 0 0 0 0 0 0 0 0.15 0"/>
<feBlend mode="normal" in2="effect1_innerShadow_5_64" result="effect2_innerShadow_5_64"/>
</filter>
<filter id="filter1_ii_5_64" x="31.0794" y="11.0794" width="25.8413" height="7.79855" filterUnits="userSpaceOnUse" color-interpolation-filters="sRGB">
<feFlood flood-opacity="0" result="BackgroundImageFix"/>
<feBlend mode="normal" in="SourceGraphic" in2="BackgroundImageFix" result="shape"/>
<feColorMatrix in="SourceAlpha" type="matrix" values="0 0 0 0 0 0 0 0 0 0 0 0 0 0 0 0 0 0 127 0" result="hardAlpha"/>
<feOffset dx="-0.920635" dy="0.920635"/>
<feGaussianBlur stdDeviation="0.920635"/>
<feComposite in2="hardAlpha" operator="arithmetic" k2="-1" k3="1"/>
<feColorMatrix type="matrix" values="0 0 0 0 1 0 0 0 0 1 0 0 0 0 1 0 0 0 0.15 0"/>
<feBlend mode="normal" in2="shape" result="effect1_innerShadow_5_64"/>
<feColorMatrix in="SourceAlpha" type="matrix" values="0 0 0 0 0 0 0 0 0 0 0 0 0 0 0 0 0 0 127 0" result="hardAlpha"/>
<feOffset dx="0.920635" dy="-0.920635"/>
<feGaussianBlur stdDeviation="0.920635"/>
<feComposite in2="hardAlpha" operator="arithmetic" k2="-1" k3="1"/>
<feColorMatrix type="matrix" values="0 0 0 0 0 0 0 0 0 0 0 0 0 0 0 0 0 0 0.15 0"/>
<feBlend mode="normal" in2="effect1_innerShadow_5_64" result="effect2_innerShadow_5_64"/>
</filter>
<filter id="filter2_ii_5_64" x="-0.920635" y="18.904" width="5.98412" height="5.98412" filterUnits="userSpaceOnUse" color-interpolation-filters="sRGB">
<feFlood flood-opacity="0" result="BackgroundImageFix"/>
<feBlend mode="normal" in="SourceGraphic" in2="BackgroundImageFix" result="shape"/>
<feColorMatrix in="SourceAlpha" type="matrix" values="0 0 0 0 0 0 0 0 0 0 0 0 0 0 0 0 0 0 127 0" result="hardAlpha"/>
<feOffset dx="-0.920635" dy="0.920635"/>
<feGaussianBlur stdDeviation="0.920635"/>
<feComposite in2="hardAlpha" operator="arithmetic" k2="-1" k3="1"/>
<feColorMatrix type="matrix" values="0 0 0 0 1 0 0 0 0 1 0 0 0 0 1 0 0 0 0.2 0"/>
<feBlend mode="normal" in2="shape" result="effect1_innerShadow_5_64"/>
<feColorMatrix in="SourceAlpha" type="matrix" values="0 0 0 0 0 0 0 0 0 0 0 0 0 0 0 0 0 0 127 0" result="hardAlpha"/>
<feOffset dx="0.920635" dy="-0.920635"/>
<feGaussianBlur stdDeviation="0.920635"/>
<feComposite in2="hardAlpha" operator="arithmetic" k2="-1" k3="1"/>
<feColorMatrix type="matrix" values="0 0 0 0 0 0 0 0 0 0 0 0 0 0 0 0 0 0 0.25 0"/>
<feBlend mode="normal" in2="effect1_innerShadow_5_64" result="effect2_innerShadow_5_64"/>
</filter>
<filter id="filter3_i_5_64" x="3.22223" y="20.5152" width="33.373" height="26.0079" filterUnits="userSpaceOnUse" color-interpolation-filters="sRGB">
<feFlood flood-opacity="0" result="BackgroundImageFix"/>
<feBlend mode="normal" in="SourceGraphic" in2="BackgroundImageFix" result="shape"/>
<feColorMatrix in="SourceAlpha" type="matrix" values="0 0 0 0 0 0 0 0 0 0 0 0 0 0 0 0 0 0 127 0" result="hardAlpha"/>
<feOffset dx="-0.920635" dy="0.920635"/>
<feGaussianBlur stdDeviation="0.920635"/>
<feComposite in2="hardAlpha" operator="arithmetic" k2="-1" k3="1"/>
<feColorMatrix type="matrix" values="0 0 0 0 1 0 0 0 0 1 0 0 0 0 1 0 0 0 0.2 0"/>
<feBlend mode="normal" in2="shape" result="effect1_innerShadow_5_64"/>
</filter>
<filter id="filter4_i_5_64" x="5.28869" y="12.9683" width="29.4653" height="4.18858" filterUnits="userSpaceOnUse" color-interpolation-filters="sRGB">
<feFlood flood-opacity="0" result="BackgroundImageFix"/>
<feBlend mode="normal" in="SourceGraphic" in2="BackgroundImageFix" result="shape"/>
<feColorMatrix in="SourceAlpha" type="matrix" values="0 0 0 0 0 0 0 0 0 0 0 0 0 0 0 0 0 0 127 0" result="hardAlpha"/>
<feOffset dx="-0.920635" dy="0.920635"/>
<feGaussianBlur stdDeviation="0.920635"/>
<feComposite in2="hardAlpha" operator="arithmetic" k2="-1" k3="1"/>
<feColorMatrix type="matrix" values="0 0 0 0 1 0 0 0 0 1 0 0 0 0 1 0 0 0 0.2 0"/>
<feBlend mode="normal" in2="shape" result="effect1_innerShadow_5_64"/>
</filter>
<filter id="filter5_i_5_64" x="16.8016" y="6.75397" width="6.21429" height="3.22221" filterUnits="userSpaceOnUse" color-interpolation-filters="sRGB">
<feFlood flood-opacity="0" result="BackgroundImageFix"/>
<feBlend mode="normal" in="SourceGraphic" in2="BackgroundImageFix" result="shape"/>
<feColorMatrix in="SourceAlpha" type="matrix" values="0 0 0 0 0 0 0 0 0 0 0 0 0 0 0 0 0 0 127 0" result="hardAlpha"/>
<feOffset dx="-0.920635" dy="0.920635"/>
<feGaussianBlur stdDeviation="0.920635"/>
<feComposite in2="hardAlpha" operator="arithmetic" k2="-1" k3="1"/>
<feColorMatrix type="matrix" values="0 0 0 0 0 0 0 0 0 0 0 0 0 0 0 0 0 0 0.09 0"/>
<feBlend mode="normal" in2="shape" result="effect1_innerShadow_5_64"/>
</filter>
<filter id="filter6_i_5_64" x="17.9524" y="9.05557" width="3.9127" height="2.53175" filterUnits="userSpaceOnUse" color-interpolation-filters="sRGB">
<feFlood flood-opacity="0" result="BackgroundImageFix"/>
<feBlend mode="normal" in="SourceGraphic" in2="BackgroundImageFix" result="shape"/>
<feColorMatrix in="SourceAlpha" type="matrix" values="0 0 0 0 0 0 0 0 0 0 0 0 0 0 0 0 0 0 127 0" result="hardAlpha"/>
<feOffset dx="-0.920635" dy="0.920635"/>
<feGaussianBlur stdDeviation="0.920635"/>
<feComposite in2="hardAlpha" operator="arithmetic" k2="-1" k3="1"/>
<feColorMatrix type="matrix" values="0 0 0 0 0 0 0 0 0 0 0 0 0 0 0 0 0 0 0.09 0"/>
<feBlend mode="normal" in2="shape" result="effect1_innerShadow_5_64"/>
</filter>
<filter id="filter7_i_5_64" x="16.8016" y="10.6667" width="6.21429" height="3.22221" filterUnits="userSpaceOnUse" color-interpolation-filters="sRGB">
<feFlood flood-opacity="0" result="BackgroundImageFix"/>
<feBlend mode="normal" in="SourceGraphic" in2="BackgroundImageFix" result="shape"/>
<feColorMatrix in="SourceAlpha" type="matrix" values="0 0 0 0 0 0 0 0 0 0 0 0 0 0 0 0 0 0 127 0" result="hardAlpha"/>
<feOffset dx="-0.920635" dy="0.920635"/>
<feGaussianBlur stdDeviation="0.920635"/>
<feComposite in2="hardAlpha" operator="arithmetic" k2="-1" k3="1"/>
<feColorMatrix type="matrix" values="0 0 0 0 0 0 0 0 0 0 0 0 0 0 0 0 0 0 0.09 0"/>
<feBlend mode="normal" in2="shape" result="effect1_innerShadow_5_64"/>
</filter>
<filter id="filter8_f_5_64" x="23.5307" y="5.20299" width="4.89631" height="4.89629" filterUnits="userSpaceOnUse" color-interpolation-filters="sRGB">
<feFlood flood-opacity="0" result="BackgroundImageFix"/>
<feBlend mode="normal" in="SourceGraphic" in2="BackgroundImageFix" result="shape"/>
<feGaussianBlur stdDeviation="0.460317" result="effect1_foregroundBlur_5_64"/>
</filter>
<filter id="filter9_f_5_64" x="23.2221" y="6.12816" width="6.18865" height="6.18862" filterUnits="userSpaceOnUse" color-interpolation-filters="sRGB">
<feFlood flood-opacity="0" result="BackgroundImageFix"/>
<feBlend mode="normal" in="SourceGraphic" in2="BackgroundImageFix" result="shape"/>
<feGaussianBlur stdDeviation="0.460317" result="effect1_foregroundBlur_5_64"/>
</filter>
<filter id="filter10_f_5_64" x="12.7846" y="5.66154" width="5.35283" height="5.35282" filterUnits="userSpaceOnUse" color-interpolation-filters="sRGB">
<feFlood flood-opacity="0" result="BackgroundImageFix"/>
<feBlend mode="normal" in="SourceGraphic" in2="BackgroundImageFix" result="shape"/>
<feGaussianBlur stdDeviation="0.345238" result="effect1_foregroundBlur_5_64"/>
</filter>
<filter id="filter11_f_5_64" x="11.7787" y="6.56438" width="5.43364" height="5.43363" filterUnits="userSpaceOnUse" color-interpolation-filters="sRGB">
<feFlood flood-opacity="0" result="BackgroundImageFix"/>
<feBlend mode="normal" in="SourceGraphic" in2="BackgroundImageFix" result="shape"/>
<feGaussianBlur stdDeviation="0.345238" result="effect1_foregroundBlur_5_64"/>
</filter>
<filter id="filter12_f_5_64" x="5.98413" y="0.309524" width="8.97618" height="8.74603" filterUnits="userSpaceOnUse" color-interpolation-filters="sRGB">
<feFlood flood-opacity="0" result="BackgroundImageFix"/>
<feBlend mode="normal" in="SourceGraphic" in2="BackgroundImageFix" result="shape"/>
<feGaussianBlur stdDeviation="0.345238" result="effect1_foregroundBlur_5_64"/>
</filter>
<filter id="filter13_f_5_64" x="25.5476" y="0.0793651" width="9.43652" height="9.20635" filterUnits="userSpaceOnUse" color-interpolation-filters="sRGB">
<feFlood flood-opacity="0" result="BackgroundImageFix"/>
<feBlend mode="normal" in="SourceGraphic" in2="BackgroundImageFix" result="shape"/>
<feGaussianBlur stdDeviation="0.460317" result="effect1_foregroundBlur_5_64"/>
</filter>
</defs>
</svg>
