<svg width="56" height="45" viewBox="0 0 56 45" fill="none" xmlns="http://www.w3.org/2000/svg">
<path fill-rule="evenodd" clip-rule="evenodd" d="M39.1723 19.4499C39.1723 19.4499 39.1723 19.4499 39.1723 19.4499H44.5723H44.7973H53.5722C54.5663 19.4499 55.3722 20.2558 55.3722 21.2499V22.7972C55.3722 23.802 54.5495 24.6123 53.5448 24.597L40.9568 24.4048C40.8664 24.4034 40.7805 24.4438 40.7238 24.5142L40.6348 24.6249L39.1828 26.1885C39.1817 26.1898 39.181 26.1913 39.1807 26.1929C39.1802 26.1969 39.1767 26.1999 39.1727 26.1999H34.8182C34.6563 26.1999 34.5249 26.0686 34.5249 25.9066V19.7432C34.5249 19.5812 34.6563 19.4499 34.8182 19.4499H39.1723C39.1723 19.4499 39.1723 19.4499 39.1723 19.4499Z" fill="#FEE0B7"/>
<path d="M33.7248 11.7639C31.3394 11.7639 30.8732 13.0856 30.9385 13.8848C30.9478 13.9989 30.9615 14.1126 30.9615 14.2271V15.535C30.9615 16.5071 31.7334 17.3036 32.7051 17.3341L36.3777 17.4492L40.7731 17.5765C41.5741 17.5997 42.2359 16.9567 42.2359 16.1555C42.2359 15.3703 42.8724 14.7338 43.6576 14.7338H50.5139C51.3084 14.7338 51.9146 15.4498 52.6419 15.7696C52.7389 15.8122 52.8442 15.8369 52.9577 15.8369C54.3947 15.8369 54.3947 15.8369 54.3947 14.3096C54.3062 12.0694 51.8524 11.6791 50.6365 11.7639H33.7248Z" fill="#FEE0B7"/>
<path d="M0.627762 20.474C0.627762 19.9769 1.0307 19.574 1.52776 19.574H4.53808V23.4843H1.52776C1.0307 23.4843 0.627762 23.0814 0.627762 22.5843V20.474Z" fill="#FEE0B7"/>
<path d="M3.70016 20.0776H35.425V42.3525C35.425 43.5951 34.4176 44.6025 33.175 44.6025H5.95015C4.70752 44.6025 3.70016 43.5951 3.70016 42.3525V20.0776Z" fill="#FDAB40"/>
<path d="M33.625 15.8946C32.275 14.8746 28 12.7652 20.6876 12.7014C13.3751 12.6377 7.96097 14.5796 5.7203 15.8946H33.625Z" fill="#FEE0B7"/>
<path d="M2.80017 16.7027C2.80017 16.2056 3.20311 15.8027 3.70016 15.8027H35.425C35.922 15.8027 36.3249 16.2056 36.3249 16.7027V19.1777C36.3249 19.6747 35.922 20.0776 35.425 20.0776H3.70016C3.20311 20.0776 2.80017 19.6747 2.80017 19.1777V16.7027Z" fill="#F08800"/>
<g filter="url(#filter0_i_5_64)">
<rect x="16.9751" y="6.62497" width="5.17497" height="2.24998" rx="1.12499" fill="#F08800"/>
</g>
<g filter="url(#filter1_i_5_64)">
<rect x="18.1001" y="8.87497" width="2.92498" height="1.57499" fill="#F08800"/>
</g>
<g filter="url(#filter2_i_5_64)">
<rect x="16.9751" y="10.4499" width="5.17497" height="2.24998" fill="#F08800"/>
</g>
<g filter="url(#filter3_f_5_64)">
<rect x="26.0533" y="5.80716" width="0.973276" height="3.82047" rx="0.486638" transform="rotate(45 26.0533 5.80716)" fill="#EEEEEE"/>
</g>
<g filter="url(#filter4_f_5_64)">
<rect x="27.0149" y="6.71161" width="0.973276" height="5.60713" rx="0.486638" transform="rotate(45 27.0149 6.71161)" fill="#EEEEEE"/>
</g>
<g filter="url(#filter5_f_5_64)">
<rect x="16.9076" y="9.6282" width="0.973276" height="5.08799" rx="0.486638" transform="rotate(135 16.9076 9.6282)" fill="#EEEEEE"/>
</g>
<g filter="url(#filter6_f_5_64)">
<rect x="16.0032" y="10.5898" width="0.973276" height="5.19971" rx="0.486638" transform="rotate(135 16.0032 10.5898)" fill="#EEEEEE"/>
</g>
<g filter="url(#filter7_f_5_64)">
<path fill-rule="evenodd" clip-rule="evenodd" d="M6.88821 4.89326C6.44939 4.48267 6.17514 3.89836 6.17514 3.24998C6.17514 2.00735 7.18249 1 8.42513 1C9.04759 1 9.61102 1.25277 10.0184 1.66127C10.3912 1.38703 10.8517 1.225 11.3501 1.225C12.5927 1.225 13.6001 2.23236 13.6001 3.47499C13.6001 4.71762 12.5927 5.72497 11.3501 5.72497C11.2699 5.72497 11.1907 5.72078 11.1127 5.7126C11.1209 5.79061 11.1251 5.8698 11.1251 5.94996C11.1251 7.1926 10.1178 8.19995 8.87512 8.19995C7.63249 8.19995 6.62514 7.1926 6.62514 5.94996C6.62514 5.56803 6.7203 5.20833 6.88821 4.89326Z" fill="#EEEEEE"/>
</g>
<g filter="url(#filter8_f_5_64)">
<path fill-rule="evenodd" clip-rule="evenodd" d="M32.2369 4.89327C32.6757 4.48268 32.95 3.89836 32.95 3.24998C32.95 2.00735 31.9426 1 30.7 1C30.0775 1 29.5141 1.25277 29.1067 1.66128C28.7338 1.38703 28.2733 1.225 27.775 1.225C26.5323 1.225 25.525 2.23236 25.525 3.47499C25.525 4.71762 26.5323 5.72497 27.775 5.72497C27.8551 5.72497 27.9343 5.72078 28.0123 5.7126C28.0042 5.7906 28 5.86979 28 5.94996C28 7.1926 29.0073 8.19995 30.25 8.19995C31.4926 8.19995 32.4999 7.1926 32.4999 5.94996C32.4999 5.56803 32.4048 5.20833 32.2369 4.89327Z" fill="#EEEEEE"/>
</g>
<defs>
<filter id="filter0_i_5_64" x="16.0751" y="6.62497" width="6.07497" height="3.14999" filterUnits="userSpaceOnUse" color-interpolation-filters="sRGB">
<feFlood flood-opacity="0" result="BackgroundImageFix"/>
<feBlend mode="normal" in="SourceGraphic" in2="BackgroundImageFix" result="shape"/>
<feColorMatrix in="SourceAlpha" type="matrix" values="0 0 0 0 0 0 0 0 0 0 0 0 0 0 0 0 0 0 127 0" result="hardAlpha"/>
<feOffset dx="-0.899994" dy="0.899994"/>
<feGaussianBlur stdDeviation="0.899994"/>
<feComposite in2="hardAlpha" operator="arithmetic" k2="-1" k3="1"/>
<feColorMatrix type="matrix" values="0 0 0 0 0 0 0 0 0 0 0 0 0 0 0 0 0 0 0.09 0"/>
<feBlend mode="normal" in2="shape" result="effect1_innerShadow_5_64"/>
</filter>
<filter id="filter1_i_5_64" x="17.2001" y="8.87497" width="3.82498" height="2.47498" filterUnits="userSpaceOnUse" color-interpolation-filters="sRGB">
<feFlood flood-opacity="0" result="BackgroundImageFix"/>
<feBlend mode="normal" in="SourceGraphic" in2="BackgroundImageFix" result="shape"/>
<feColorMatrix in="SourceAlpha" type="matrix" values="0 0 0 0 0 0 0 0 0 0 0 0 0 0 0 0 0 0 127 0" result="hardAlpha"/>
<feOffset dx="-0.899994" dy="0.899994"/>
<feGaussianBlur stdDeviation="0.899994"/>
<feComposite in2="hardAlpha" operator="arithmetic" k2="-1" k3="1"/>
<feColorMatrix type="matrix" values="0 0 0 0 0 0 0 0 0 0 0 0 0 0 0 0 0 0 0.09 0"/>
<feBlend mode="normal" in2="shape" result="effect1_innerShadow_5_64"/>
</filter>
<filter id="filter2_i_5_64" x="16.0751" y="10.4499" width="6.07497" height="3.14999" filterUnits="userSpaceOnUse" color-interpolation-filters="sRGB">
<feFlood flood-opacity="0" result="BackgroundImageFix"/>
<feBlend mode="normal" in="SourceGraphic" in2="BackgroundImageFix" result="shape"/>
<feColorMatrix in="SourceAlpha" type="matrix" values="0 0 0 0 0 0 0 0 0 0 0 0 0 0 0 0 0 0 127 0" result="hardAlpha"/>
<feOffset dx="-0.899994" dy="0.899994"/>
<feGaussianBlur stdDeviation="0.899994"/>
<feComposite in2="hardAlpha" operator="arithmetic" k2="-1" k3="1"/>
<feColorMatrix type="matrix" values="0 0 0 0 0 0 0 0 0 0 0 0 0 0 0 0 0 0 0.09 0"/>
<feBlend mode="normal" in2="shape" result="effect1_innerShadow_5_64"/>
</filter>
<filter id="filter3_f_5_64" x="22.6534" y="5.10873" width="4.78653" height="4.78653" filterUnits="userSpaceOnUse" color-interpolation-filters="sRGB">
<feFlood flood-opacity="0" result="BackgroundImageFix"/>
<feBlend mode="normal" in="SourceGraphic" in2="BackgroundImageFix" result="shape"/>
<feGaussianBlur stdDeviation="0.449997" result="effect1_foregroundBlur_5_64"/>
</filter>
<filter id="filter4_f_5_64" x="22.3516" y="6.01318" width="6.04988" height="6.0499" filterUnits="userSpaceOnUse" color-interpolation-filters="sRGB">
<feFlood flood-opacity="0" result="BackgroundImageFix"/>
<feBlend mode="normal" in="SourceGraphic" in2="BackgroundImageFix" result="shape"/>
<feGaussianBlur stdDeviation="0.449997" result="effect1_foregroundBlur_5_64"/>
</filter>
<filter id="filter5_f_5_64" x="12.1482" y="5.55703" width="5.23282" height="5.2328" filterUnits="userSpaceOnUse" color-interpolation-filters="sRGB">
<feFlood flood-opacity="0" result="BackgroundImageFix"/>
<feBlend mode="normal" in="SourceGraphic" in2="BackgroundImageFix" result="shape"/>
<feGaussianBlur stdDeviation="0.337498" result="effect1_foregroundBlur_5_64"/>
</filter>
<filter id="filter6_f_5_64" x="11.1648" y="6.4396" width="5.31181" height="5.31181" filterUnits="userSpaceOnUse" color-interpolation-filters="sRGB">
<feFlood flood-opacity="0" result="BackgroundImageFix"/>
<feBlend mode="normal" in="SourceGraphic" in2="BackgroundImageFix" result="shape"/>
<feGaussianBlur stdDeviation="0.337498" result="effect1_foregroundBlur_5_64"/>
</filter>
<filter id="filter7_f_5_64" x="5.50014" y="0.325005" width="8.77493" height="8.54994" filterUnits="userSpaceOnUse" color-interpolation-filters="sRGB">
<feFlood flood-opacity="0" result="BackgroundImageFix"/>
<feBlend mode="normal" in="SourceGraphic" in2="BackgroundImageFix" result="shape"/>
<feGaussianBlur stdDeviation="0.337498" result="effect1_foregroundBlur_5_64"/>
</filter>
<filter id="filter8_f_5_64" x="24.625" y="0.100006" width="9.22496" height="8.99994" filterUnits="userSpaceOnUse" color-interpolation-filters="sRGB">
<feFlood flood-opacity="0" result="BackgroundImageFix"/>
<feBlend mode="normal" in="SourceGraphic" in2="BackgroundImageFix" result="shape"/>
<feGaussianBlur stdDeviation="0.449997" result="effect1_foregroundBlur_5_64"/>
</filter>
</defs>
</svg>
