<svg width="53" height="36" viewBox="0 0 53 36" fill="none" xmlns="http://www.w3.org/2000/svg">
<path d="M0.644836 8C0.644836 8 15.715 9.54288 26.1448 9.5625C36.8185 9.58257 51.6448 8 51.6448 8L45.0901 31.1695L7.01984 30.375L0.644836 8Z" fill="#FF970F"/>
<ellipse cx="26.1448" cy="30.375" rx="19.125" ry="5.625" fill="#FF970F"/>
<path d="M51.3855 9.5C51.3855 10.5086 50.8285 11.5664 49.6052 12.6232C48.3841 13.678 46.573 14.6624 44.269 15.5043C39.6672 17.1857 33.2595 18.2406 26.1448 18.2406C19.0302 18.2406 12.6225 17.1857 8.02067 15.5043C5.7167 14.6624 3.90553 13.678 2.68446 12.6232C1.4612 11.5664 0.904212 10.5086 0.904212 9.5C0.904212 8.49143 1.4612 7.43356 2.68446 6.37682C3.90553 5.32198 5.7167 4.33758 8.02067 3.49574C12.6225 1.81431 19.0302 0.759375 26.1448 0.759375C33.2595 0.759375 39.6672 1.81431 44.269 3.49574C46.573 4.33758 48.3841 5.32198 49.6052 6.37682C50.8285 7.43356 51.3855 8.49143 51.3855 9.5Z" fill="#EEEEEE" stroke="#FEE0B7" stroke-width="1.51875"/>
<rect x="20.5198" y="8.14221" width="12.15" height="15.3141" rx="1.51875" fill="#FF970F"/>
<ellipse cx="26.5948" cy="8.83828" rx="6.075" ry="2.08828" fill="#FEE0B7"/>
<path d="M51.3855 9.5C51.3855 10.5086 50.8285 11.5664 49.6052 12.6232C48.3841 13.678 46.573 14.6624 44.269 15.5043C39.6672 17.1857 33.2595 18.2406 26.1448 18.2406C19.0302 18.2406 12.6225 17.1857 8.02067 15.5043C5.7167 14.6624 3.90553 13.678 2.68446 12.6232C1.4612 11.5664 0.904212 10.5086 0.904212 9.5C0.904212 8.49143 1.4612 7.43356 2.68446 6.37682C3.90553 5.32198 5.7167 4.33758 8.02067 3.49574C12.6225 1.81431 19.0302 0.759375 26.1448 0.759375C33.2595 0.759375 39.6672 1.81431 44.269 3.49574C46.573 4.33758 48.3841 5.32198 49.6052 6.37682C50.8285 7.43356 51.3855 8.49143 51.3855 9.5Z" stroke="#F9C681" stroke-width="1.51875"/>
</svg>
