<svg width="119" height="113" viewBox="0 0 119 113" fill="none" xmlns="http://www.w3.org/2000/svg">
<rect width="119" height="113" fill="white"/>
<g opacity="0.01">
<ellipse cx="57.5" cy="105.673" rx="17.5" ry="2.80864" fill="#D9D9D9"/>
<ellipse cx="57.5" cy="105.241" rx="17.5" ry="3.24074" fill="#C9C9C9"/>
<ellipse cx="57.5" cy="105.673" rx="17.5" ry="2.80864" fill="#292929"/>
</g>
<path fill-rule="evenodd" clip-rule="evenodd" d="M40.3734 12.9409C45.1128 11.463 50.9869 12.0389 54.7048 15.3288C58.3744 18.576 57.5416 24.3427 58.652 29.1153C59.6414 33.368 62.398 37.6253 60.8415 41.7048C59.2996 45.7458 54.236 46.7858 50.8721 49.5046C47.2413 52.4392 45.0056 57.6673 40.3734 58.248C35.663 58.8384 31.3294 55.5424 27.7707 52.4004C24.4614 49.4786 22.8369 45.3818 21.1704 41.2937C19.359 36.85 15.4024 31.9011 17.6964 27.6861C20.0734 23.3188 27.1677 25.3262 31.3362 22.6157C35.1287 20.1497 36.0548 14.2875 40.3734 12.9409Z" fill="#FDAB40" fill-opacity="0.1"/>
<path fill-rule="evenodd" clip-rule="evenodd" d="M44.0657 12.9409C48.8051 11.463 54.6792 12.0389 58.3971 15.3288C62.0667 18.576 61.2338 24.3427 62.3442 29.1153C63.3337 33.368 66.0903 37.6253 64.5337 41.7048C62.9918 45.7458 57.9282 46.7858 54.5644 49.5046C50.9336 52.4392 48.6979 57.6673 44.0657 58.248C39.3553 58.8384 35.0217 55.5424 31.463 52.4004C28.1536 49.4786 26.5291 45.3818 24.8627 41.2937C23.0513 36.85 19.0946 31.9011 21.3887 27.6861C23.7656 23.3188 30.8599 25.3262 35.0285 22.6157C38.8209 20.1497 39.747 14.2875 44.0657 12.9409Z" fill="#FDAB40" fill-opacity="0.7"/>
<path fill-rule="evenodd" clip-rule="evenodd" d="M75.9512 44.5311C80.9429 42.9746 87.1298 43.5812 91.0456 47.0462C94.9106 50.4663 94.0334 56.54 95.2029 61.5667C96.245 66.0459 99.1484 70.5298 97.509 74.8265C95.885 79.0826 90.5518 80.178 87.0089 83.0416C83.1847 86.1324 80.83 91.6389 75.9512 92.2504C70.99 92.8723 66.4257 89.4008 62.6776 86.0915C59.192 83.0141 57.481 78.6992 55.7258 74.3935C53.818 69.7132 49.6507 64.5008 52.0669 60.0614C54.5704 55.4616 62.0424 57.5759 66.4328 54.721C70.4272 52.1238 71.4026 45.9495 75.9512 44.5311Z" fill="#FDAB40" fill-opacity="0.1"/>
<path fill-rule="evenodd" clip-rule="evenodd" d="M73.6178 42.9756C78.6096 41.419 84.7964 42.0256 88.7123 45.4907C92.5772 48.9108 91.7 54.9845 92.8695 60.0111C93.9117 64.4903 96.8151 68.9743 95.1756 73.2709C93.5516 77.5271 88.2184 78.6225 84.6755 81.486C80.8514 84.5768 78.4967 90.0833 73.6178 90.6949C68.6566 91.3168 64.0924 87.8452 60.3442 84.536C56.8586 81.4586 55.1476 77.1437 53.3925 72.838C51.4846 68.1576 47.3173 62.9453 49.7335 58.5059C52.237 53.9061 59.709 56.0203 64.0995 53.1655C68.0939 50.5682 69.0692 44.3939 73.6178 42.9756Z" fill="#FDAB40" fill-opacity="0.8"/>
<g clip-path="url(#clip0_476_916)">
<path d="M53.9777 71.2868L52.2276 82.7831C52.1812 83.088 51.9998 83.3456 51.7233 83.4994C51.4468 83.6532 51.0979 83.6904 50.7533 83.603L47.8301 82.861C47.4855 82.7736 47.1734 82.5686 46.9626 82.2911C46.7518 82.0137 46.6594 81.6865 46.7058 81.3816L48.4559 69.8853C48.5024 69.5804 48.6838 69.3228 48.9602 69.169C49.2367 69.0152 49.5856 68.978 49.9302 69.0654L52.8535 69.8074C53.1981 69.8948 53.5101 70.0998 53.7209 70.3773C53.9318 70.6547 54.0241 70.9819 53.9777 71.2868ZM44.0836 67.5816L41.1603 66.8396C40.8157 66.7522 40.4668 66.7894 40.1904 66.9432C39.9139 67.0969 39.7325 67.3546 39.6861 67.6595L37.936 79.1558C37.8895 79.4607 37.9819 79.7879 38.1927 80.0653C38.4036 80.3428 38.7156 80.5477 39.0602 80.6352L41.9835 81.3771C42.3281 81.4646 42.677 81.4273 42.9534 81.2736C43.2299 81.1198 43.4113 80.8622 43.4577 80.5573L45.2078 69.061C45.2543 68.7561 45.1619 68.4289 44.9511 68.1515C44.7402 67.874 44.4282 67.669 44.0836 67.5816V67.5816Z" fill="#FDFDFD"/>
</g>
<rect x="32.598" y="4.53401" width="66.6" height="80.6" rx="7.8" transform="rotate(11.1205 32.598 4.53401)" fill="#FDFDFD" stroke="#C9C9C9" stroke-width="0.4"/>
<rect x="38.5542" y="14.6732" width="51" height="40" rx="5.44" transform="rotate(11.1205 38.5542 14.6732)" fill="#FFF9F2"/>
<circle cx="53.1052" cy="72.8579" r="5.28571" transform="rotate(11.1205 53.1052 72.8579)" fill="#FFF9F2"/>
<circle cx="40.139" cy="70.3092" r="5.28571" transform="rotate(11.1205 40.139 70.3092)" fill="#FFF9F2"/>
<circle cx="66.0714" cy="75.4065" r="5.28571" transform="rotate(11.1205 66.0714 75.4065)" fill="#FFF9F2"/>
<g clip-path="url(#clip1_476_916)">
<path d="M42.3411 69.9393L41.6528 68.9143C41.6301 68.8801 41.6009 68.8507 41.5667 68.8279C41.5326 68.8051 41.4943 68.7893 41.454 68.7814C41.4138 68.7734 41.3723 68.7736 41.3321 68.7818C41.2919 68.79 41.2537 68.8061 41.2197 68.8291L40.6147 69.2337L38.4679 70.6768C38.4338 70.6996 38.4045 70.7289 38.3817 70.763C38.3589 70.7971 38.3432 70.8354 38.3353 70.8757L38.1669 71.7323C38.1509 71.8137 38.1679 71.898 38.2141 71.9668C38.2603 72.0356 38.3319 72.0833 38.4133 72.0993L39.2699 72.2676C39.3102 72.2756 39.3516 72.2755 39.3918 72.2673C39.432 72.2592 39.4702 72.2431 39.5042 72.2201L42.256 70.3724C42.3242 70.3259 42.3714 70.2544 42.3873 70.1733C42.4032 70.0923 42.3866 70.0082 42.3411 69.9393V69.9393ZM38.7176 70.8852L40.8433 69.4578L41.1005 69.8408L38.9747 71.2681L38.7176 70.8852ZM38.5816 71.2426L39.0236 71.9007L38.4735 71.7926L38.5816 71.2426ZM39.4059 71.9102L39.1487 71.5272L41.2745 70.0999L41.5316 70.4828L39.4059 71.9102Z" fill="#FF970F"/>
</g>
<g clip-path="url(#clip2_476_916)">
<path d="M66.0364 75.6181L67.5587 74.5976C67.589 74.5726 67.6089 74.5372 67.6146 74.4984C67.6203 74.4595 67.6113 74.4199 67.5894 74.3873C67.5675 74.3547 67.5343 74.3314 67.4961 74.322C67.458 74.3125 67.4177 74.3176 67.3832 74.3362L65.8624 75.3589L64.8419 73.8367C64.817 73.8063 64.7816 73.7864 64.7427 73.7807C64.7039 73.7751 64.6643 73.7841 64.6317 73.8059C64.5991 73.8278 64.5758 73.8611 64.5663 73.8992C64.5569 73.9373 64.5619 73.9776 64.5805 74.0122L65.6033 75.5329L64.081 76.5534C64.0465 76.5768 64.0226 76.6129 64.0146 76.6538C64.0066 76.6947 64.015 76.7371 64.0381 76.7719C64.0618 76.806 64.0979 76.8295 64.1386 76.8375C64.1794 76.8455 64.2217 76.8374 64.2565 76.8148L65.7773 75.792L66.7978 77.3143C66.8215 77.3484 66.8575 77.372 66.8983 77.38C66.9391 77.388 66.9814 77.3798 67.0162 77.3573C67.0507 77.3339 67.0746 77.2978 67.0826 77.2569C67.0907 77.216 67.0823 77.1735 67.0592 77.1388L66.0364 75.6181Z" fill="#FF970F"/>
</g>
<g clip-path="url(#clip3_476_916)">
<path d="M55.6027 72.1946L55.1165 75.388C55.1036 75.4727 55.0533 75.5443 54.9765 75.587C54.8997 75.6297 54.8027 75.64 54.707 75.6157L53.895 75.4097C53.7993 75.3854 53.7126 75.3284 53.654 75.2514C53.5955 75.1743 53.5698 75.0834 53.5827 74.9987L54.0689 71.8053C54.0818 71.7206 54.1321 71.649 54.2089 71.6063C54.2857 71.5636 54.3827 71.5533 54.4784 71.5776L55.2904 71.7836C55.3861 71.8079 55.4728 71.8649 55.5314 71.9419C55.5899 72.019 55.6156 72.1099 55.6027 72.1946ZM52.8543 71.1654L52.0423 70.9593C51.9466 70.935 51.8497 70.9453 51.7729 70.988C51.6961 71.0307 51.6457 71.1023 51.6328 71.187L51.1466 74.3804C51.1337 74.4651 51.1594 74.556 51.218 74.6331C51.2765 74.7101 51.3632 74.7671 51.4589 74.7914L52.2709 74.9975C52.3667 75.0218 52.4636 75.0114 52.5404 74.9687C52.6172 74.926 52.6676 74.8544 52.6805 74.7697L53.1666 71.5763C53.1795 71.4916 53.1538 71.4007 53.0953 71.3237C53.0367 71.2466 52.95 71.1897 52.8543 71.1654V71.1654Z" fill="#FDAB40"/>
</g>
<rect x="79.0001" y="7" width="17" height="17" rx="4" fill="#FFE3DD"/>
<g clip-path="url(#clip4_476_916)">
<path d="M87.8974 15.4999L90.2318 13.169C90.2766 13.1144 90.2995 13.045 90.2961 12.9744C90.2926 12.9038 90.263 12.837 90.213 12.787C90.163 12.737 90.0962 12.7074 90.0256 12.704C89.955 12.7005 89.8856 12.7234 89.831 12.7683L87.5001 15.1026L85.1693 12.7683C85.1146 12.7234 85.0452 12.7005 84.9746 12.704C84.904 12.7074 84.8372 12.737 84.7872 12.787C84.7373 12.837 84.7076 12.9038 84.7042 12.9744C84.7007 13.045 84.7236 13.1144 84.7685 13.169L87.1029 15.4999L84.7685 17.8308C84.7157 17.8841 84.686 17.9561 84.686 18.0311C84.686 18.1062 84.7157 18.1782 84.7685 18.2315C84.8222 18.2835 84.8941 18.3126 84.9689 18.3126C85.0436 18.3126 85.1155 18.2835 85.1693 18.2315L87.5001 15.8972L89.831 18.2315C89.8847 18.2835 89.9566 18.3126 90.0314 18.3126C90.1061 18.3126 90.178 18.2835 90.2318 18.2315C90.2846 18.1782 90.3142 18.1062 90.3142 18.0311C90.3142 17.9561 90.2846 17.8841 90.2318 17.8308L87.8974 15.4999Z" fill="#A9361C"/>
</g>
<defs>
<clipPath id="clip0_476_916">
<rect width="21.4183" height="18.5891" fill="white" transform="matrix(0.970565 0.246331 -0.150636 0.989512 36.963 63.3862)"/>
</clipPath>
<clipPath id="clip1_476_916">
<rect width="5" height="5" fill="white" transform="translate(38.3372 67.6256) rotate(11.1205)"/>
</clipPath>
<clipPath id="clip2_476_916">
<rect width="5" height="5" fill="white" transform="translate(63.849 72.6403) rotate(11.1205)"/>
</clipPath>
<clipPath id="clip3_476_916">
<rect width="5.94953" height="5.16363" fill="white" transform="matrix(0.970565 0.246331 -0.150636 0.989512 50.8763 70)"/>
</clipPath>
<clipPath id="clip4_476_916">
<rect width="9" height="9" fill="white" transform="translate(83.0001 11)"/>
</clipPath>
</defs>
</svg>
